<?xml version="1.0" encoding="UTF-8"?>
<svg width="1200pt" height="1200pt" version="1.1" viewBox="0 0 1200 1200" xmlns="http://www.w3.org/2000/svg">
 <g>
  <path d="m785.98 777.26c-26.035-8.0859-50.02-21.602-70.711-39.801-31.402 37.668-64.445 76.195-78.469 88.938-13.59 12.367-15.512-25.996-13.504-71.938-26.918 9.1836-55.113 14.477-84.051 15.738 21.387 61.969 37.691 131.03 17.809 160.09-22.688 33.156-92.691-87.484-140.84-180.14-13.426-5.2031-26.539-11.281-39.145-18.391-6.8086 5.5586-14.086 10.383-21.676 14.539 35.004 89.254 97.996 224.48 165.91 248.87 0 0 13.754 97.352-35.746 149.61h176s-75.359-70.977-25.871-208.47c-0.007813 0.003907 84.246-74.461 150.3-159.04z"/>
  <path d="m1074 410.92c9.9922-19.707 15.75-41.898 15.75-65.496 0-80.148-64.988-145.1-145.11-145.1-11.395 0-22.422 1.4414-33.059 3.9414-29.398-83.734-108.93-143.85-202.72-143.85-61.969 0-117.68 26.375-156.91 68.324-30.617-44.387-81.766-73.504-139.74-73.504-77.102 0-142.08 51.422-162.76 121.82-81.184 0.42578-146.88 66.352-146.88 147.65 0 27.156 7.4648 52.523 20.262 74.387-34.168 24.441-56.527 64.359-56.527 109.57 0 66.215 47.809 121.16 110.78 132.48 17.102 51.41 65.508 88.547 122.65 88.547 34.055 0 64.977-13.277 88.066-34.812 43.793 26.527 95.152 41.797 150.07 41.797 64.66 0 124.37-21.172 172.6-56.93 33.625 43.969 86.465 72.469 146.07 72.469 50.098 0 95.457-20.086 128.64-52.547 83.281-7.4023 148.6-77.281 148.6-162.5-0.007813-50.883-23.301-96.305-59.781-126.24z"/>
 </g>
</svg>
